# xmcd
#
# Track frame offsets: 
#        150
#        35553
#        52097
#        71548
#        88405
#        104267
#        120048
#        133443
#        161077
#        181297
#        193419
#        208761
#        230998
#        254040
#        292561
#        308598
#
# Disc length: 4422 seconds
#
# Revision: 4
# Processed by: cddbd v1.5.2PL0 Copyright (c) Steve Scherf et al.
# Submitted via: ExactAudioCopy v1.0b3
#
DISCID=f6114410
DTITLE=Popa Chubby - The First Cuts
DYEAR=2000
DGENRE=Blues-Rock
TTITLE0=I Can't Stand It Baby
TTITLE1=I Love Your Shoes
TTITLE2=Angel On My Shoulder
TTITLE3=Mind Your Stuff
TTITLE4=Money
TTITLE5=Fell My Eyes On You
TTITLE6=Let The Jam Begin
TTITLE7=Lipservice
TTITLE8=Every Girl I See
TTITLE9=Working Class Blues
TTITLE10=Show Me
TTITLE11=Stoop Down Baby
TTITLE12=Handyman
TTITLE13=San Catri
TTITLE14=Lookin' For One Kiss
TTITLE15=Rain On My Mind
EXTD=YEAR: 1996
EXTT0=
EXTT1=
EXTT2=
EXTT3=
EXTT4=
EXTT5=
EXTT6=
EXTT7=
EXTT8=
EXTT9=
EXTT10=
EXTT11=
EXTT12=
EXTT13=
EXTT14=
EXTT15=
PLAYORDER=
